<svg xmlns="http://www.w3.org/2000/svg" width="1600" height="1540" viewBox="0 0 1600 1540" fill="none"><defs><linearGradient id="bgGlow" x1="0" y1="0" x2="1600" y2="1540" gradientUnits="userSpaceOnUse"><stop stop-color="#fff8f6"/><stop offset="1" stop-color="#fff1ef"/></linearGradient><linearGradient id="cardGlow" x1="0" y1="0" x2="680" y2="180" gradientUnits="userSpaceOnUse"><stop stop-color="#ffffff"/><stop offset="1" stop-color="#fff8fb"/></linearGradient></defs><rect width="1600" height="1540" rx="32" fill="url(#bgGlow)"/><circle cx="1380" cy="150" r="180" fill="#ffe5eb" opacity="0.7"/><circle cx="210" cy="1320" r="220" fill="#fff0dd" opacity="0.55"/><circle cx="240" cy="180" r="100" fill="#ffeef1" opacity="0.8"/><text x="72" y="112" fill="#6b3b46" font-size="54" font-weight="700" font-family="PingFang SC, Hiragino Sans GB, Microsoft YaHei, Noto Sans SC, sans-serif">Brave 主题设置速查图</text><text x="72" y="158" fill="#8a5863" font-size="24" font-weight="500" font-family="PingFang SC, Hiragino Sans GB, Microsoft YaHei, Noto Sans SC, sans-serif">外观 -> 自定义 -> Brave 主题设置</text><text x="72" y="202" fill="#86656d" font-size="18" font-family="PingFang SC, Hiragino Sans GB, Microsoft YaHei, Noto Sans SC, sans-serif">把“首页该去哪改、Hero 该去哪改、页脚链接该去哪改”一次看清。</text><rect x="72" y="232" width="1456" height="60" rx="20" fill="#ffe6ea" stroke="#ffd3db"/><text x="98" y="269" fill="#6b3b46" font-size="20" font-weight="600" font-family="PingFang SC, Hiragino Sans GB, Microsoft YaHei, Noto Sans SC, sans-serif">别找错：</text><text x="184" y="269" fill="#5a4a50" font-size="19" font-family="PingFang SC, Hiragino Sans GB, Microsoft YaHei, Noto Sans SC, sans-serif">天气城市在 设置 -> 天气城市；纪念日列表在 设置 -> 纪念日；单页 Hero 在页面编辑器右侧“当前页面 Hero”。</text><rect x="80" y="330" width="680" height="180" rx="26" fill="#f8dede" opacity="0.45"/><rect x="72" y="320" width="680" height="180" rx="26" fill="url(#cardGlow)" stroke="#f2d8d9" stroke-width="2"/><rect x="98" y="344" width="112" height="34" rx="17" fill="#ffe6ea"/><text x="120" y="367" fill="#ff6f8b" font-size="18" font-weight="700" font-family="PingFang SC, Hiragino Sans GB, Microsoft YaHei, Noto Sans SC, sans-serif">设置分组</text><text x="98" y="412" fill="#6b3b46" font-size="30" font-weight="700" font-family="PingFang SC, Hiragino Sans GB, Microsoft YaHei, Noto Sans SC, sans-serif">首页与情侣</text><circle cx="106" cy="442" r="4" fill="#ff6f8b"/><text x="124" y="448" fill="#5a4a50" font-size="20" font-family="PingFang SC, Hiragino Sans GB, Microsoft YaHei, Noto Sans SC, sans-serif">首页恋爱正计时</text><circle cx="106" cy="470" r="4" fill="#ff6f8b"/><text x="124" y="476" fill="#5a4a50" font-size="20" font-family="PingFang SC, Hiragino Sans GB, Microsoft YaHei, Noto Sans SC, sans-serif">首页顶部导航副标题</text><circle cx="106" cy="498" r="4" fill="#ff6f8b"/><text x="124" y="504" fill="#5a4a50" font-size="20" font-family="PingFang SC, Hiragino Sans GB, Microsoft YaHei, Noto Sans SC, sans-serif">情侣头像昵称 / 作者映射</text><rect x="808" y="330" width="680" height="180" rx="26" fill="#f8dede" opacity="0.45"/><rect x="800" y="320" width="680" height="180" rx="26" fill="url(#cardGlow)" stroke="#f2d8d9" stroke-width="2"/><rect x="826" y="344" width="112" height="34" rx="17" fill="#ffe6ea"/><text x="848" y="367" fill="#ff6f8b" font-size="18" font-weight="700" font-family="PingFang SC, Hiragino Sans GB, Microsoft YaHei, Noto Sans SC, sans-serif">设置分组</text><text x="826" y="412" fill="#6b3b46" font-size="30" font-weight="700" font-family="PingFang SC, Hiragino Sans GB, Microsoft YaHei, Noto Sans SC, sans-serif">默认页面 Hero</text><circle cx="834" cy="442" r="4" fill="#ff6f8b"/><text x="852" y="448" fill="#5a4a50" font-size="20" font-family="PingFang SC, Hiragino Sans GB, Microsoft YaHei, Noto Sans SC, sans-serif">内容页通用 Hero 背景</text><circle cx="834" cy="470" r="4" fill="#ff6f8b"/><text x="852" y="476" fill="#5a4a50" font-size="20" font-family="PingFang SC, Hiragino Sans GB, Microsoft YaHei, Noto Sans SC, sans-serif">单页想覆盖时</text><circle cx="834" cy="498" r="4" fill="#ff6f8b"/><text x="852" y="504" fill="#5a4a50" font-size="20" font-family="PingFang SC, Hiragino Sans GB, Microsoft YaHei, Noto Sans SC, sans-serif">去页面编辑器右侧设置</text><rect x="80" y="538" width="680" height="180" rx="26" fill="#f8dede" opacity="0.45"/><rect x="72" y="528" width="680" height="180" rx="26" fill="url(#cardGlow)" stroke="#f2d8d9" stroke-width="2"/><rect x="98" y="552" width="112" height="34" rx="17" fill="#ffe6ea"/><text x="120" y="575" fill="#ff6f8b" font-size="18" font-weight="700" font-family="PingFang SC, Hiragino Sans GB, Microsoft YaHei, Noto Sans SC, sans-serif">设置分组</text><text x="98" y="620" fill="#6b3b46" font-size="30" font-weight="700" font-family="PingFang SC, Hiragino Sans GB, Microsoft YaHei, Noto Sans SC, sans-serif">纪念日与倒计时</text><circle cx="106" cy="650" r="4" fill="#ff6f8b"/><text x="124" y="656" fill="#5a4a50" font-size="20" font-family="PingFang SC, Hiragino Sans GB, Microsoft YaHei, Noto Sans SC, sans-serif">首页顶部倒计时</text><circle cx="106" cy="678" r="4" fill="#ff6f8b"/><text x="124" y="684" fill="#5a4a50" font-size="20" font-family="PingFang SC, Hiragino Sans GB, Microsoft YaHei, Noto Sans SC, sans-serif">特别的日子模块标题</text><circle cx="106" cy="706" r="4" fill="#ff6f8b"/><text x="124" y="712" fill="#5a4a50" font-size="20" font-family="PingFang SC, Hiragino Sans GB, Microsoft YaHei, Noto Sans SC, sans-serif">纪念日列表去 设置 -&gt; 纪念日</text><rect x="808" y="538" width="680" height="180" rx="26" fill="#f8dede" opacity="0.45"/><rect x="800" y="528" width="680" height="180" rx="26" fill="url(#cardGlow)" stroke="#f2d8d9" stroke-width="2"/><rect x="826" y="552" width="112" height="34" rx="17" fill="#ffe6ea"/><text x="848" y="575" fill="#ff6f8b" font-size="18" font-weight="700" font-family="PingFang SC, Hiragino Sans GB, Microsoft YaHei, Noto Sans SC, sans-serif">设置分组</text><text x="826" y="620" fill="#6b3b46" font-size="30" font-weight="700" font-family="PingFang SC, Hiragino Sans GB, Microsoft YaHei, Noto Sans SC, sans-serif">页面绑定与跳转</text><circle cx="834" cy="650" r="4" fill="#ff6f8b"/><text x="852" y="656" fill="#5a4a50" font-size="20" font-family="PingFang SC, Hiragino Sans GB, Microsoft YaHei, Noto Sans SC, sans-serif">绑定各个普通页面</text><circle cx="834" cy="678" r="4" fill="#ff6f8b"/><text x="852" y="684" fill="#5a4a50" font-size="20" font-family="PingFang SC, Hiragino Sans GB, Microsoft YaHei, Noto Sans SC, sans-serif">首页入口和页脚默认跟随这里</text><circle cx="834" cy="706" r="4" fill="#ff6f8b"/><text x="852" y="712" fill="#5a4a50" font-size="20" font-family="PingFang SC, Hiragino Sans GB, Microsoft YaHei, Noto Sans SC, sans-serif">恋爱清单不用绑定</text><rect x="80" y="746" width="680" height="180" rx="26" fill="#f8dede" opacity="0.45"/><rect x="72" y="736" width="680" height="180" rx="26" fill="url(#cardGlow)" stroke="#f2d8d9" stroke-width="2"/><rect x="98" y="760" width="112" height="34" rx="17" fill="#ffe6ea"/><text x="120" y="783" fill="#ff6f8b" font-size="18" font-weight="700" font-family="PingFang SC, Hiragino Sans GB, Microsoft YaHei, Noto Sans SC, sans-serif">设置分组</text><text x="98" y="828" fill="#6b3b46" font-size="30" font-weight="700" font-family="PingFang SC, Hiragino Sans GB, Microsoft YaHei, Noto Sans SC, sans-serif">首页入口卡片图标</text><circle cx="106" cy="858" r="4" fill="#ff6f8b"/><text x="124" y="864" fill="#5a4a50" font-size="20" font-family="PingFang SC, Hiragino Sans GB, Microsoft YaHei, Noto Sans SC, sans-serif">只改首页 6 张卡片 Emoji</text><circle cx="106" cy="886" r="4" fill="#ff6f8b"/><text x="124" y="892" fill="#5a4a50" font-size="20" font-family="PingFang SC, Hiragino Sans GB, Microsoft YaHei, Noto Sans SC, sans-serif">不改标题 / 副标题 / 链接</text><rect x="808" y="746" width="680" height="180" rx="26" fill="#f8dede" opacity="0.45"/><rect x="800" y="736" width="680" height="180" rx="26" fill="url(#cardGlow)" stroke="#f2d8d9" stroke-width="2"/><rect x="826" y="760" width="112" height="34" rx="17" fill="#ffe6ea"/><text x="848" y="783" fill="#ff6f8b" font-size="18" font-weight="700" font-family="PingFang SC, Hiragino Sans GB, Microsoft YaHei, Noto Sans SC, sans-serif">设置分组</text><text x="826" y="828" fill="#6b3b46" font-size="30" font-weight="700" font-family="PingFang SC, Hiragino Sans GB, Microsoft YaHei, Noto Sans SC, sans-serif">恋爱清单页（归档）</text><circle cx="834" cy="858" r="4" fill="#ff6f8b"/><text x="852" y="864" fill="#5a4a50" font-size="20" font-family="PingFang SC, Hiragino Sans GB, Microsoft YaHei, Noto Sans SC, sans-serif">单独设置恋爱清单 Hero</text><circle cx="834" cy="886" r="4" fill="#ff6f8b"/><text x="852" y="892" fill="#5a4a50" font-size="20" font-family="PingFang SC, Hiragino Sans GB, Microsoft YaHei, Noto Sans SC, sans-serif">标题 / 副标题 / 背景图</text><rect x="80" y="954" width="680" height="180" rx="26" fill="#f8dede" opacity="0.45"/><rect x="72" y="944" width="680" height="180" rx="26" fill="url(#cardGlow)" stroke="#f2d8d9" stroke-width="2"/><rect x="98" y="968" width="112" height="34" rx="17" fill="#ffe6ea"/><text x="120" y="991" fill="#ff6f8b" font-size="18" font-weight="700" font-family="PingFang SC, Hiragino Sans GB, Microsoft YaHei, Noto Sans SC, sans-serif">设置分组</text><text x="98" y="1036" fill="#6b3b46" font-size="30" font-weight="700" font-family="PingFang SC, Hiragino Sans GB, Microsoft YaHei, Noto Sans SC, sans-serif">列表与相册展示</text><circle cx="106" cy="1066" r="4" fill="#ff6f8b"/><text x="124" y="1072" fill="#5a4a50" font-size="20" font-family="PingFang SC, Hiragino Sans GB, Microsoft YaHei, Noto Sans SC, sans-serif">点点滴滴每页数量</text><circle cx="106" cy="1094" r="4" fill="#ff6f8b"/><text x="124" y="1100" fill="#5a4a50" font-size="20" font-family="PingFang SC, Hiragino Sans GB, Microsoft YaHei, Noto Sans SC, sans-serif">甜蜜相册每页数量</text><circle cx="106" cy="1122" r="4" fill="#ff6f8b"/><text x="124" y="1128" fill="#5a4a50" font-size="20" font-family="PingFang SC, Hiragino Sans GB, Microsoft YaHei, Noto Sans SC, sans-serif">相册悬浮信息开关</text><rect x="808" y="954" width="680" height="180" rx="26" fill="#f8dede" opacity="0.45"/><rect x="800" y="944" width="680" height="180" rx="26" fill="url(#cardGlow)" stroke="#f2d8d9" stroke-width="2"/><rect x="826" y="968" width="112" height="34" rx="17" fill="#ffe6ea"/><text x="848" y="991" fill="#ff6f8b" font-size="18" font-weight="700" font-family="PingFang SC, Hiragino Sans GB, Microsoft YaHei, Noto Sans SC, sans-serif">设置分组</text><text x="826" y="1036" fill="#6b3b46" font-size="30" font-weight="700" font-family="PingFang SC, Hiragino Sans GB, Microsoft YaHei, Noto Sans SC, sans-serif">页脚导航</text><circle cx="834" cy="1066" r="4" fill="#ff6f8b"/><text x="852" y="1072" fill="#5a4a50" font-size="20" font-family="PingFang SC, Hiragino Sans GB, Microsoft YaHei, Noto Sans SC, sans-serif">拖拽排序</text><circle cx="834" cy="1094" r="4" fill="#ff6f8b"/><text x="852" y="1100" fill="#5a4a50" font-size="20" font-family="PingFang SC, Hiragino Sans GB, Microsoft YaHei, Noto Sans SC, sans-serif">单独改名称和链接</text><circle cx="834" cy="1122" r="4" fill="#ff6f8b"/><text x="852" y="1128" fill="#5a4a50" font-size="20" font-family="PingFang SC, Hiragino Sans GB, Microsoft YaHei, Noto Sans SC, sans-serif">留空自动继承页面绑定</text><rect x="80" y="1162" width="680" height="180" rx="26" fill="#f8dede" opacity="0.45"/><rect x="72" y="1152" width="680" height="180" rx="26" fill="url(#cardGlow)" stroke="#f2d8d9" stroke-width="2"/><rect x="98" y="1176" width="112" height="34" rx="17" fill="#ffe6ea"/><text x="120" y="1199" fill="#ff6f8b" font-size="18" font-weight="700" font-family="PingFang SC, Hiragino Sans GB, Microsoft YaHei, Noto Sans SC, sans-serif">设置分组</text><text x="98" y="1244" fill="#6b3b46" font-size="30" font-weight="700" font-family="PingFang SC, Hiragino Sans GB, Microsoft YaHei, Noto Sans SC, sans-serif">页脚访客统计</text><circle cx="106" cy="1274" r="4" fill="#ff6f8b"/><text x="124" y="1280" fill="#5a4a50" font-size="20" font-family="PingFang SC, Hiragino Sans GB, Microsoft YaHei, Noto Sans SC, sans-serif">开关显示</text><circle cx="106" cy="1302" r="4" fill="#ff6f8b"/><text x="124" y="1308" fill="#5a4a50" font-size="20" font-family="PingFang SC, Hiragino Sans GB, Microsoft YaHei, Noto Sans SC, sans-serif">修改今日 / 累计访客文案</text><circle cx="106" cy="1330" r="4" fill="#ff6f8b"/><text x="124" y="1336" fill="#5a4a50" font-size="20" font-family="PingFang SC, Hiragino Sans GB, Microsoft YaHei, Noto Sans SC, sans-serif">手动覆盖仅用于校正</text><rect x="808" y="1162" width="680" height="180" rx="26" fill="#f8dede" opacity="0.45"/><rect x="800" y="1152" width="680" height="180" rx="26" fill="url(#cardGlow)" stroke="#f2d8d9" stroke-width="2"/><rect x="826" y="1176" width="112" height="34" rx="17" fill="#ffe6ea"/><text x="848" y="1199" fill="#ff6f8b" font-size="18" font-weight="700" font-family="PingFang SC, Hiragino Sans GB, Microsoft YaHei, Noto Sans SC, sans-serif">设置分组</text><text x="826" y="1244" fill="#6b3b46" font-size="30" font-weight="700" font-family="PingFang SC, Hiragino Sans GB, Microsoft YaHei, Noto Sans SC, sans-serif">自定义代码</text><circle cx="834" cy="1274" r="4" fill="#ff6f8b"/><text x="852" y="1280" fill="#5a4a50" font-size="20" font-family="PingFang SC, Hiragino Sans GB, Microsoft YaHei, Noto Sans SC, sans-serif">自定义 CSS</text><circle cx="834" cy="1302" r="4" fill="#ff6f8b"/><text x="852" y="1308" fill="#5a4a50" font-size="20" font-family="PingFang SC, Hiragino Sans GB, Microsoft YaHei, Noto Sans SC, sans-serif">页脚统计脚本</text><circle cx="834" cy="1330" r="4" fill="#ff6f8b"/><text x="852" y="1336" fill="#5a4a50" font-size="20" font-family="PingFang SC, Hiragino Sans GB, Microsoft YaHei, Noto Sans SC, sans-serif">站点验证代码</text><text x="72" y="1494" fill="#86656d" font-size="18" font-family="PingFang SC, Hiragino Sans GB, Microsoft YaHei, Noto Sans SC, sans-serif">提示：旅行计划页自己的“足迹补充”不在 Customizer，而在旅行计划页面编辑器下方的专用面板里。</text></svg>